<svg xmlns="http://www.w3.org/2000/svg" xmlns:xlink="http://www.w3.org/1999/xlink" width="942" height="274" viewBox="0 0 942 274">
  <defs>
    <clipPath id="clip-Artboard_45">
      <rect width="942" height="274"/>
    </clipPath>
  </defs>
  <g id="Artboard_45" data-name="Artboard – 45" clip-path="url(#clip-Artboard_45)">
    <g id="Group_83" data-name="Group 83" transform="translate(-179.031 -461.354)">
      <g id="Group_78" data-name="Group 78">
        <path id="Path_161" data-name="Path 161" d="M421.844,656.3c10.706-24.473,18.442-50.258,33.759-72.407a75.44,75.44,0,0,1,45.541-31.246c24.055-5.842,50.1,18.129,45.217,41.535-1.515,7.258-5.454,9.726-12.548,7.207-7.91-2.808-15.715-5.949-23.426-9.269-2.969-1.279-4.685-1.219-5.457,2.176-1.076,4.736-4.021,6.344-8.868,6.534-6.912.27-13.874.5-20.73,1.8-3.545.672-5.975,2.266-7.537,5.714-2.6,5.743-7.218,9.9-12.207,13.561-7.373,5.41-14.082,11.3-18.812,19.385C433.174,647.444,426.3,650.727,421.844,656.3Z" fill="#624b2d"/>
        <path id="Path_162" data-name="Path 162" d="M371.742,656.832a39.608,39.608,0,0,0-6.563-7.24c-2.834-2.657-5.828-5.254-7.654-8.7-3.75-7.074-9.524-12.124-15.8-16.772-6.381-4.729-12.278-9.879-15.655-17.363-1.41-3.124-4.643-3.489-7.5-3.829a179.644,179.644,0,0,0-18.747-1.577c-5.151-.069-8.685-1.54-9.863-6.883-.655-2.972-2.175-3.3-4.913-2.1-6.844,2.978-13.818,5.661-20.762,8.406a33.691,33.691,0,0,1-5.327,1.687c-5.139,1.09-8.673-1.036-9.929-6.169-2.252-9.2-.459-17.749,4.687-25.628,7.9-12.1,25.587-22.935,45.139-16.292,21.131,7.179,36.348,20.793,46.968,40.053,9.57,17.355,16.127,36.021,23.611,54.282C370.426,651.109,372.238,653.31,371.742,656.832Z" fill="#624b2d"/>
        <path id="Path_163" data-name="Path 163" d="M431.292,669.52c-.054-.25-.237-.571-.144-.738,15.88-28.458,38.682-48.591,70.555-57.029,22.953-6.077,44.8,2.381,59.017,22.353,11.351,15.951,16.148,33.8,13.424,53.414a10.443,10.443,0,0,1-.332,1.559,6.437,6.437,0,0,1-.762,1.11l-16.829-30.317-3.045,13.939c-7.057-6.7-14.193-13.456-21.3-20.242-7.026-6.713-14.018-13.463-21.111-20.279,0,3.193-.191,6.738.057,10.253.22,3.121-.482,4.173-3.826,3.295-7.356-1.931-14.809-3.484-22.2-5.272a8.351,8.351,0,0,0-6.744,1.006c-15.523,9.095-31.177,17.967-46.789,26.911Z" fill="#624b2d"/>
        <path id="Path_164" data-name="Path 164" d="M362.609,669.951c-15.3-9.007-30.623-17.981-45.88-27.063a7.175,7.175,0,0,0-5.966-1.036c-7.767,1.944-15.665,3.374-23.4,5.423-3.173.841-3.2-.374-3.216-2.77-.018-3.539.462-7.122-.19-10.128l-42.1,40.155c-.9-4.126-1.885-8.6-3.124-14.261l-16.956,30.55c-1.867-5.157-1.856-9.9-1.666-14.609.767-19.033,7.118-36,20.709-49.439,17.188-16.995,37.608-20.512,60.261-12.359,27.741,9.983,47.7,28.773,61.882,54.194a2.724,2.724,0,0,1,.164.778A5.055,5.055,0,0,0,362.609,669.951Z" fill="#624b2d"/>
        <path id="Path_165" data-name="Path 165" d="M396.395,645.924c-1-8.157-1.9-15.628-2.835-23.094-3.633-28.968-9.167-57.458-21.277-84.285a29.776,29.776,0,0,1-.94-23.383c3.239-8.757,10.8-12,19.322-8.3a15.7,15.7,0,0,0,12.025.46c14.877-5.172,24.619,3.1,22.711,19.152a54.645,54.645,0,0,1-4.714,16.065c-13.055,28.906-20.208,59.273-22.471,90.85-.276,3.85-.622,7.7-.946,11.543C397.262,645.026,397.122,645.109,396.395,645.924Z" fill="#624b2d"/>
        <path id="Path_166" data-name="Path 166" d="M385.546,652.05c-5.457-11.572-11-23.1-16.352-34.724-10.16-22.045-23.377-41.936-40.715-59.045a104.488,104.488,0,0,1-13.431-15.914c-2.835-4.213-4.854-8.692-1.9-13.82,1.013-1.76,2.159-2.8,4.4-2.705a213.828,213.828,0,0,0,30-.4c8.3-.795,13.471,3.735,15.5,12.536q7.362,32,14.4,64.064c2.692,12.253,5.732,24.441,7.615,36.858.654,4.313.948,8.682,1.407,13.025Z" fill="#624b2d"/>
        <path id="Path_167" data-name="Path 167" d="M408.752,651.424c.39-14.178,3.9-27.657,6.864-41.211,5.137-23.484,10.444-46.931,15.675-70.4,2.765-12.4,8.8-16.513,21.356-14.584,7.589,1.165,15.222.4,22.83.318,5.547-.057,8.832,3.729,7.628,9.413a22.68,22.68,0,0,1-4.753,9.176,277.288,277.288,0,0,1-19.713,22.18c-15.6,16.1-25.8,35.617-35.442,55.486-4.253,8.764-8.139,17.705-12.249,26.539C410.449,649.418,410.353,650.893,408.752,651.424Z" fill="#624b2d"/>
      </g>
      <path id="Path_168" data-name="Path 168" d="M397.523,659.048l.395.782-.915-.218A5.127,5.127,0,0,1,397.523,659.048Z" fill="#624b2d"/>
      <path id="Path_169" data-name="Path 169" d="M397.7,659.146l-.327.516-.189-.45.544-.03Z" fill="#624b2d"/>
      <g id="Group_82" data-name="Group 82">
        <g id="Group_79" data-name="Group 79">
          <path id="Path_170" data-name="Path 170" d="M610.7,539.99c.218,0,.561.011,1.033.029q4.686.209,6.631.208,1.887,0,6.513-.208c.491-.018.854-.029,1.092-.029l-.03,2.034a7.241,7.241,0,0,0-2.756.472,2.4,2.4,0,0,0-1.2,1.477,14.3,14.3,0,0,0-.441,3.666q-.116,2.844-.118,13.042,0,3.477.059,8.017t.059,5.63a35.023,35.023,0,0,1-.664,7.808,15.227,15.227,0,0,1-2.223,5.04,13.66,13.66,0,0,1-4.539,4.246,11.558,11.558,0,0,1-5.719,1.445,6.79,6.79,0,0,1-3.6-.755,2.523,2.523,0,0,1-1.176-2.28,3.083,3.083,0,0,1,.677-1.977,2.014,2.014,0,0,1,1.621-.853,6.588,6.588,0,0,1,2.462.927,6.527,6.527,0,0,0,2.844.928,3.544,3.544,0,0,0,3.433-2.3q1.045-2.3,1.046-7.842V546.976q0-2.977-.9-3.964c-.6-.658-1.771-.988-3.521-.988H610.7Z" fill="#831918"/>
          <path id="Path_171" data-name="Path 171" d="M651.267,552.61h3.549q2.681,8.2,5.086,14.966t3.786,10.18a6.505,6.505,0,0,0,1.424,2.416,2.794,2.794,0,0,0,1.711.453h.414v1.423c-1.075-.052-2.054-.094-2.943-.121s-1.633-.042-2.237-.042c-.771,0-1.616.011-2.54.042s-1.9.069-2.927.121v-1.423h.39a4.093,4.093,0,0,0,2-.339,1.368,1.368,0,0,0,.535-1.253,3.711,3.711,0,0,0-.079-.732,9.654,9.654,0,0,0-.268-.965l-2.023-6.325q-.786,0-2.148-.022c-1.649-.04-2.709-.062-3.174-.062q-1.406,0-2.654.012c-.829.007-1.694.023-2.588.05q-1.465,3.707-2,5.4a9.3,9.3,0,0,0-.536,2.422,1.654,1.654,0,0,0,.536,1.414,3.326,3.326,0,0,0,1.918.4h.556v1.423c-1-.052-1.942-.094-2.815-.121s-1.655-.042-2.343-.042c-.548,0-1.238.011-2.059.042s-1.722.069-2.686.121v-1.4a3.792,3.792,0,0,0,3.818-2.413q1.156-2.417,4.1-9.675t6.2-15.947m.927,3.876-4.722,12.34c.26,0,.638.005,1.135.02q2.328.063,3.176.061c.689,0,1.931-.019,3.734-.061.4-.015.7-.02.907-.02Z" fill="#831918"/>
          <path id="Path_172" data-name="Path 172" d="M676.215,580.709l.276.03c.092.007.227.01.4.01q2.738,0,2.783-7.716c.015-1.293.027-2.3.042-3.033l.082-5.632q.023-1.818.032-3.527c.005-1.144.01-2.378.01-3.713a3.524,3.524,0,0,0-.662-2.459,3.228,3.228,0,0,0-2.349-.677h-.167v-1.445c.921.068,1.834.116,2.733.145s1.78.038,2.63.038c.924,0,2.069-.028,3.436-.092s2.28-.091,2.735-.091a10.54,10.54,0,0,1,6.931,2.228,6.951,6.951,0,0,1,2.7,5.591,7.628,7.628,0,0,1-1.353,4.447,10.751,10.751,0,0,1-4.053,3.331l3.856,5.84q.207.327.62.949,4,6.107,6.56,6.107h.209v1.175c-.194.014-.482.042-.87.081q-1.338.123-1.959.124a8.357,8.357,0,0,1-3.455-.588,6.892,6.892,0,0,1-2.507-2.281q-.2-.264-2.278-3.671t-4.178-6.416c-.524.055-1.08.1-1.672.123s-1.246.043-1.958.043h-1.24v6.334q0,3.093.642,3.908a3.111,3.111,0,0,0,2.536.815l.163-.02.168-.022.134.022.071.02v1.36q-1.467-.078-2.909-.121c-.964-.03-1.918-.042-2.869-.042-.509,0-1.222.012-2.145.042s-1.966.069-3.134.121Zm7.343-13.207c.662.072,1.282.118,1.866.146s1.1.042,1.559.042q.578,0,1.319-.033c.495-.019,1.034-.057,1.61-.113a8.135,8.135,0,0,0,2.909-2.773,7.3,7.3,0,0,0,.929-3.764,6,6,0,0,0-1.856-4.6,7.039,7.039,0,0,0-4.995-1.736q-.844,0-1.649.077c-.536.045-1.065.121-1.589.215q-.06,2.558-.082,5.26t-.021,7.281" fill="#831918"/>
          <path id="Path_173" data-name="Path 173" d="M712.259,582.048v-1.422l.269.011c.095.005.235.007.414.007q2.742,0,2.784-7.652.02-1.938.042-3.032l.082-5.489c.015-1.18.023-2.334.032-3.456s.01-2.4.01-3.848a3.523,3.523,0,0,0-.66-2.455,3.239,3.239,0,0,0-2.353-.679h-.165V552.61q1.363.059,2.526.113c.779.034,1.428.05,1.952.05q2.266,0,5-.176t3.207-.173q7.673,0,12.091,3.9t4.414,10.6a14.562,14.562,0,0,1-4.426,11.088q-4.424,4.2-11.833,4.2-1.09,0-3.98-.166t-4.681-.163c-.566,0-1.253.012-2.064.042s-1.7.069-2.664.121m7.3-2.5a27.568,27.568,0,0,0,2.961.486,27.883,27.883,0,0,0,2.919.154q5.82,0,8.924-3.178t3.106-9.076q0-6.293-3.346-9.861t-9.281-3.57c-.813,0-1.638.033-2.476.094s-1.7.154-2.578.278q-.126,7.509-.177,11.84t-.052,7.224Z" fill="#831918"/>
          <path id="Path_174" data-name="Path 174" d="M751.587,552.61c.962.054,1.916.1,2.867.121s1.88.042,2.785.042c.771,0,1.631-.012,2.58-.042s1.953-.067,3.011-.121v1.4h-.349a5.018,5.018,0,0,0-2.012.309,1.765,1.765,0,0,0-.939,1.032,6.6,6.6,0,0,0-.237,1.54q-.074,1.06-.071,3.456v14.393q0,2.436.111,3.429a4.436,4.436,0,0,0,.363,1.465,1.555,1.555,0,0,0,.957.74,6.493,6.493,0,0,0,1.952.229h.433v1.443q-1.776-.078-3.28-.121c-1.006-.031-1.846-.042-2.519-.042-.8,0-1.7.011-2.7.042s-2.056.069-3.156.121V580.6h.41a6.456,6.456,0,0,0,1.962-.229,1.563,1.563,0,0,0,.949-.74,5.31,5.31,0,0,0,.4-1.829q.114-1.27.113-4.594V561.876q0-3.24-.079-4.612a8.452,8.452,0,0,0-.269-1.911,1.7,1.7,0,0,0-.9-1.032,4.917,4.917,0,0,0-2.009-.309h-.373Z" fill="#831918"/>
          <path id="Path_175" data-name="Path 175" d="M771.973,552.61c.648.054,1.277.1,1.888.121s1.214.042,1.807.042c.439,0,.956-.012,1.547-.042s1.231-.067,1.92-.121a7.71,7.71,0,0,0,.742,1.4,17.262,17.262,0,0,0,1.2,1.586l17.022,20.139q-.063-3.138-.126-8.315-.164-10.874-.369-11.7a2.066,2.066,0,0,0-.878-1.323,4.269,4.269,0,0,0-2.051-.37h-.642V552.61c.166,0,.415,0,.743.018q2.93.144,4.126.145c.813,0,2.227-.049,4.251-.145.289-.015.507-.018.66-.018l-.02,1.422-.267-.03c-.1-.006-.228-.012-.395-.012q-2.763,0-2.8,7.7-.021,1.941-.022,3.032l-.084,5.489c-.024.813-.044,1.646-.051,2.506s-.01,2.042-.01,3.538c0,1.663.019,2.962.061,3.89a18.682,18.682,0,0,0,.21,2.238h-2.293a18.106,18.106,0,0,0-2.494-3.3l-.208-.245-17.7-20.816v.473q.123,19.311.413,20.424a2.045,2.045,0,0,0,.875,1.323,4.145,4.145,0,0,0,2.014.37h.618v1.443c-.207-.014-.509-.026-.909-.042q-2.889-.118-3.94-.121c-.672,0-1.421.011-2.237.042s-1.682.069-2.592.121v-1.423l.281.012c.1.007.238.008.4.008q2.764,0,2.807-7.654.02-1.937.02-3.031l.1-5.489q.018-1.772.03-3.457t.012-3.847a3.456,3.456,0,0,0-.682-2.456,3.389,3.389,0,0,0-2.414-.679h-.559Z" fill="#831918"/>
          <path id="Path_176" data-name="Path 176" d="M832.256,582.047V580.9l.217.011.331.008q2.224,0,2.252-6.191.021-1.569.034-2.452l.067-4.439c.013-.959.02-1.888.025-2.8s.008-1.943.008-3.11a2.839,2.839,0,0,0-.534-1.987,2.61,2.61,0,0,0-1.9-.551h-.134v-1.151l2.045.091c.627.03,1.154.044,1.576.044q1.839,0,4.049-.143c1.473-.092,2.337-.143,2.595-.143q6.206,0,9.777,3.153a10.867,10.867,0,0,1,3.571,8.579,11.786,11.786,0,0,1-3.578,8.967q-3.582,3.4-9.573,3.4c-.588,0-1.663-.043-3.218-.134s-2.822-.133-3.789-.133c-.456,0-1.013.012-1.668.032s-1.374.059-2.152.1m5.907-2.017a21.744,21.744,0,0,0,4.755.517q4.707,0,7.217-2.57t2.511-7.341q0-5.09-2.7-7.978a9.8,9.8,0,0,0-7.51-2.887q-.984,0-2,.075c-.68.053-1.373.126-2.087.227q-.1,6.072-.141,9.577t-.041,5.842Z" fill="#831918"/>
          <path id="Path_177" data-name="Path 177" d="M864.433,558.237c1.943.067,3.686.117,5.22.151s2.86.05,3.973.05q1.853,0,3.746-.05t3.846-.151c.012.833.045,1.689.1,2.563s.123,1.75.2,2.626l-1.119.1a3.258,3.258,0,0,0-1.234-2.711q-1.1-.709-4.757-.71-.934,0-3.419.049c-.336.011-.578.018-.736.018q-.036,2-.1,4.9t-.084,3.774h.513c.659,0,1.478.009,2.463.026s1.646.021,1.98.021a7.311,7.311,0,0,0,3.194-.45,1.89,1.89,0,0,0,.842-1.666l1.05.1c-.076.692-.135,1.33-.173,1.921s-.057,1.134-.057,1.634q0,.434.08,1.87c.024.342.037.608.051.782l-1.084.034v-.134a2.07,2.07,0,0,0-.824-1.919,9.119,9.119,0,0,0-3.865-.5h-4.17c0,.548-.009,1.3-.019,2.264s-.015,1.655-.015,2.08c0,.732,0,1.5.015,2.292s.034,1.727.069,2.793c.554.068,1.182.118,1.893.152s1.481.05,2.326.05q4.19,0,5.516-.811a5.568,5.568,0,0,0,2.111-3.113l1.2.4q-.5,1.386-.885,2.722t-.665,2.651q-2.621-.1-4.873-.15t-4.071-.05q-2.49,0-8.012.183l-.6.017v-1.085l.227.028.324,0q2.221,0,2.254-6.241.015-1.567.032-2.45l.065-4.555q.018-1.47.027-2.856c.007-.922.009-1.921.009-3a2.856,2.856,0,0,0-.534-1.987,2.611,2.611,0,0,0-1.9-.55h-.132Z" fill="#831918"/>
          <path id="Path_178" data-name="Path 178" d="M891.216,558.186q1.784.1,2.712.143c.615.029,1.114.042,1.494.042.723,0,1.431-.013,2.128-.042s1.387-.072,2.077-.126v1.169h-.519a1.813,1.813,0,0,0-1.784.909,11.358,11.358,0,0,0-.466,4.178v3.316l.048,12.22q.934.051,1.781.076c.559.017,1.091.025,1.588.025q4.474,0,5.77-.825a5.745,5.745,0,0,0,2.059-3.194l1.2.364c-.346.959-.651,1.9-.917,2.822s-.5,1.851-.7,2.785q-2.77-.084-5.1-.124t-4.365-.042c-.954,0-2.024.015-3.2.042s-2.572.068-4.169.124v-1.085l.22.027.326.006q2.258-.015,2.271-6.417,0-1.452.015-2.268l.035-4.536c0-.489,0-1.117.017-1.885s.017-1.3.017-1.6a10.2,10.2,0,0,0-.492-3.994,1.967,1.967,0,0,0-1.912-.925h-.134Z" fill="#831918"/>
          <path id="Path_179" data-name="Path 179" d="M936.924,539.99q5.157.177,9.222.266t7.018.091q3.27,0,6.617-.091t6.792-.266q.028,2.21.178,4.527c.1,1.54.214,3.09.355,4.641l-1.977.178q-.237-3.54-2.179-4.792t-8.4-1.25q-1.647,0-6.043.088c-.586.018-1.021.028-1.295.028q-.063,3.537-.178,8.667t-.148,6.657h.914c1.161,0,2.608.017,4.349.047s2.9.042,3.491.042c2.847,0,4.732-.263,5.644-.8a3.333,3.333,0,0,0,1.488-2.946l1.857.178c-.137,1.22-.242,2.345-.309,3.388s-.1,2.005-.1,2.889c0,.511.047,1.612.148,3.3.038.61.067,1.068.085,1.384l-1.916.057v-.233q0-2.508-1.456-3.391t-6.824-.884h-7.369q0,1.446-.03,3.994t-.028,3.67q0,1.942.028,4.051t.118,4.938q1.476.177,3.347.265c1.246.059,2.619.089,4.11.089q7.4,0,9.743-1.429t3.725-5.5l2.123.705c-.591,1.631-1.108,3.235-1.562,4.8s-.844,3.135-1.177,4.685q-4.627-.174-8.608-.264t-7.19-.087q-4.394,0-14.147.322l-1.061.029v-1.913l.4.042c.127.013.317.017.574.017q3.92,0,3.981-11.025c.016-1.846.038-3.29.058-4.33l.116-8.045q.028-2.6.046-5.042t.013-5.3a5.038,5.038,0,0,0-.942-3.509,4.611,4.611,0,0,0-3.361-.971h-.235Z" fill="#831918"/>
          <path id="Path_180" data-name="Path 180" d="M979.9,582.048v-1.422l.267.011c.1.005.235.007.415.007q2.743,0,2.785-7.652.02-1.938.04-3.032l.082-5.489c.015-1.18.025-2.334.032-3.456s.012-2.4.012-3.848a3.533,3.533,0,0,0-.66-2.455,3.243,3.243,0,0,0-2.355-.679h-.163V552.61c.907.039,1.752.078,2.526.113s1.426.05,1.95.05q2.268,0,5-.176t3.206-.173q7.676,0,12.093,3.9t4.412,10.6a14.569,14.569,0,0,1-4.426,11.088q-4.423,4.2-11.829,4.2-1.1,0-3.986-.166t-4.68-.163c-.565,0-1.253.012-2.063.042s-1.7.069-2.662.121m7.3-2.5a27.449,27.449,0,0,0,2.961.486,27.883,27.883,0,0,0,2.919.154q5.816,0,8.921-3.178t3.1-9.076q0-6.293-3.342-9.861t-9.283-3.57c-.813,0-1.638.033-2.476.094s-1.7.154-2.578.278q-.126,7.509-.175,11.84t-.052,7.224Z" fill="#831918"/>
          <path id="Path_181" data-name="Path 181" d="M1017.563,552.61q3.613.12,6.456.183t4.913.064q2.29,0,4.632-.064t4.754-.183c.015,1.029.055,2.084.126,3.164s.151,2.163.246,3.25l-1.382.124a4.039,4.039,0,0,0-1.528-3.352q-1.364-.876-5.879-.875-1.156,0-4.229.059c-.413.017-.714.02-.907.02q-.042,2.48-.126,6.066t-.1,4.665h.639c.809,0,1.824.008,3.041.03s2.034.032,2.446.032a9.117,9.117,0,0,0,3.954-.558,2.349,2.349,0,0,0,1.037-2.062l1.3.121q-.144,1.281-.217,2.374t-.072,2.023q0,.534.1,2.309c.026.427.047.751.063.969l-1.342.042v-.163a2.55,2.55,0,0,0-1.023-2.375q-1.022-.617-4.775-.618h-5.157q0,1.008-.02,2.8c-.017,1.189-.02,2.045-.02,2.566,0,.909,0,1.854.02,2.839s.041,2.134.081,3.453c.687.084,1.468.148,2.341.186s1.833.064,2.877.064q5.18,0,6.823-1a6.908,6.908,0,0,0,2.606-3.848l1.485.5c-.411,1.142-.776,2.26-1.093,3.362s-.591,2.194-.827,3.279q-3.234-.124-6.023-.185t-5.035-.062q-3.07,0-9.9.228l-.744.019v-1.341l.279.032c.091.005.225.01.4.01q2.744,0,2.785-7.716c.015-1.293.028-2.3.04-3.033l.084-5.631c.013-1.213.027-2.387.03-3.529s.012-2.377.012-3.714a3.522,3.522,0,0,0-.662-2.457,3.229,3.229,0,0,0-2.35-.679h-.166Z" fill="#831918"/>
          <path id="Path_182" data-name="Path 182" d="M1047.806,552.61c.643.054,1.276.1,1.884.121s1.215.042,1.808.042c.44,0,.954-.012,1.547-.042s1.231-.067,1.918-.121a7.666,7.666,0,0,0,.744,1.4,16.751,16.751,0,0,0,1.2,1.586l17.019,20.139q-.063-3.138-.124-8.315-.166-10.874-.37-11.7a2.06,2.06,0,0,0-.88-1.323,4.248,4.248,0,0,0-2.05-.37h-.64V552.61c.166,0,.413,0,.742.018q2.933.144,4.127.145,1.216,0,4.249-.145c.289-.015.509-.018.662-.018l-.022,1.422-.267-.03c-.1-.006-.227-.012-.393-.012q-2.766,0-2.807,7.7c-.011,1.294-.02,2.3-.02,3.032l-.082,5.489c-.027.813-.044,1.646-.052,2.506s-.009,2.042-.009,3.538c0,1.663.021,2.962.061,3.89a18.821,18.821,0,0,0,.206,2.238h-2.289a18.153,18.153,0,0,0-2.5-3.3l-.21-.245-17.7-20.816v.473q.12,19.311.41,20.424a2.058,2.058,0,0,0,.878,1.323,4.131,4.131,0,0,0,2.011.37h.619v1.443c-.208-.014-.51-.026-.908-.042q-2.888-.118-3.939-.121c-.675,0-1.419.011-2.239.042s-1.681.069-2.588.121v-1.423l.275.012c.106.007.239.008.407.008q2.758,0,2.8-7.654.026-1.937.026-3.031l.1-5.489q.018-1.772.032-3.457t.009-3.847a3.437,3.437,0,0,0-.682-2.456,3.377,3.377,0,0,0-2.412-.679h-.556Z" fill="#831918"/>
        </g>
        <g id="Group_80" data-name="Group 80">
          <path id="Path_183" data-name="Path 183" d="M713.1,645.809h8.649l.082,2.6h-.366a3.141,3.141,0,0,0-.683-1.6,2.815,2.815,0,0,0-1.744-.369h-.851v7.828c0,.588.092.954.275,1.1a2.535,2.535,0,0,0,1.211.279v.283h-4.46v-.283a2.118,2.118,0,0,0,1.211-.32,2.012,2.012,0,0,0,.238-1.234v-7.648H715.8a2.932,2.932,0,0,0-1.728.365,2.7,2.7,0,0,0-.691,1.6h-.373Z" fill="#5c4524"/>
          <path id="Path_184" data-name="Path 184" d="M724.213,655.93v-.285a1.246,1.246,0,0,0,.886-.443,12.267,12.267,0,0,0,1.01-2.066l3.187-7.506h.3l3.811,8.671a3.691,3.691,0,0,0,.608,1.066,1.435,1.435,0,0,0,.766.278v.285H730.9v-.285a3.392,3.392,0,0,0,.864-.145c.129-.056.194-.2.194-.42a1.857,1.857,0,0,0-.074-.392,4.5,4.5,0,0,0-.209-.6l-.613-1.471h-4.031q-.6,1.5-.712,1.832a1.7,1.7,0,0,0-.116.524.542.542,0,0,0,.314.535,2.461,2.461,0,0,0,.73.133v.285ZM730.8,652l-1.753-4.211L727.286,652Z" fill="#5c4524"/>
          <path id="Path_185" data-name="Path 185" d="M738.265,655.645a1.83,1.83,0,0,0,1.217-.428,2.8,2.8,0,0,0,.269-1.542v-6.21a1.549,1.549,0,0,0-.261-1.077,2,2,0,0,0-1.188-.294v-.285h3.016l3.513,7.619,3.426-7.619H751.3v.285a1.819,1.819,0,0,0-1.1.309,1.587,1.587,0,0,0-.246,1.062v6.8a1.574,1.574,0,0,0,.246,1.072,1.956,1.956,0,0,0,1.1.309v.284h-4.28v-.284a1.871,1.871,0,0,0,1.153-.331,2.1,2.1,0,0,0,.228-1.228V647.22l-3.918,8.709h-.209l-3.85-8.351v6.1a2.5,2.5,0,0,0,.367,1.635,1.858,1.858,0,0,0,1.068.335v.284h-3.593Z" fill="#5c4524"/>
          <path id="Path_186" data-name="Path 186" d="M754.979,655.93v-.285a1.244,1.244,0,0,0,.885-.443,12.24,12.24,0,0,0,1.011-2.066l3.187-7.506h.3l3.811,8.671a3.666,3.666,0,0,0,.608,1.066,1.435,1.435,0,0,0,.766.278v.285h-3.89v-.285a3.383,3.383,0,0,0,.864-.145c.13-.056.2-.2.2-.42a1.814,1.814,0,0,0-.075-.392,4.359,4.359,0,0,0-.209-.6l-.612-1.471h-4.031q-.6,1.5-.713,1.832a1.691,1.691,0,0,0-.115.524.543.543,0,0,0,.313.535,2.477,2.477,0,0,0,.731.133v.285Zm6.587-3.93-1.752-4.211L758.052,652Z" fill="#5c4524"/>
          <path id="Path_187" data-name="Path 187" d="M769.031,655.645a1.732,1.732,0,0,0,1.1-.342,2.146,2.146,0,0,0,.217-1.212v-6.623a1.6,1.6,0,0,0-.243-1.059,1.79,1.79,0,0,0-1.072-.315v-.285h4.235a6.272,6.272,0,0,1,2.2.335,2.331,2.331,0,0,1,1.672,2.335,2.139,2.139,0,0,1-.743,1.753,4.09,4.09,0,0,1-2.02.8l3.152,3.881a2.119,2.119,0,0,0,.582.521,1.907,1.907,0,0,0,.747.206v.284H776.4l-3.826-4.712-.671.037v3.015q0,.849.257,1.076a2.145,2.145,0,0,0,1.124.3v.284h-4.25Zm5.228-5.3a1.856,1.856,0,0,0,1.217-1.879,1.8,1.8,0,0,0-1.09-1.811,3.826,3.826,0,0,0-1.546-.261,1.947,1.947,0,0,0-.8.093c-.1.062-.145.207-.145.436v3.766a7.724,7.724,0,0,0,2.359-.344" fill="#5c4524"/>
          <path id="Path_188" data-name="Path 188" d="M782.367,655.645a2.557,2.557,0,0,0,1.211-.278q.274-.211.275-1.1v-6.8a1.5,1.5,0,0,0-.275-1.087,2.164,2.164,0,0,0-1.211-.287v-.285h4.526v.285a2.158,2.158,0,0,0-1.21.287,1.49,1.49,0,0,0-.276,1.087v6.8q0,.885.276,1.1a2.549,2.549,0,0,0,1.21.278v.284h-4.526Z" fill="#5c4524"/>
          <path id="Path_189" data-name="Path 189" d="M790.446,655.645a1.832,1.832,0,0,0,1.217-.428,2.806,2.806,0,0,0,.269-1.542v-6.738l-.209-.247a1.676,1.676,0,0,0-.572-.488,2.16,2.16,0,0,0-.705-.108v-.285h2.61l5.9,7.32v-5.085a2.45,2.45,0,0,0-.373-1.632,1.886,1.886,0,0,0-1.09-.318v-.285h3.592v.285a1.774,1.774,0,0,0-1.165.424,2.63,2.63,0,0,0-.292,1.538v8.053h-.261l-6.767-8.388v5.955a2.509,2.509,0,0,0,.366,1.634,1.864,1.864,0,0,0,1.068.335v.284h-3.592Z" fill="#5c4524"/>
          <path id="Path_190" data-name="Path 190" d="M804.626,655.646a2.255,2.255,0,0,0,1.09-.3c.169-.141.255-.5.255-1.073v-6.8a1.588,1.588,0,0,0-.247-1.075,1.893,1.893,0,0,0-1.1-.3v-.284h4.124a8.156,8.156,0,0,1,3.525.687,4.459,4.459,0,0,1,2.6,4.407,5.191,5.191,0,0,1-.468,2.173,4.444,4.444,0,0,1-1.407,1.74,4.767,4.767,0,0,1-1.24.681,8.365,8.365,0,0,1-2.883.433h-4.25Zm3.081-.4a1.572,1.572,0,0,0,.759.12,5.56,5.56,0,0,0,2.95-.711,4.022,4.022,0,0,0,1.777-3.73,4.3,4.3,0,0,0-1.463-3.542,5.118,5.118,0,0,0-3.324-1.017,1.484,1.484,0,0,0-.7.112c-.122.076-.182.238-.182.494v7.782a.551.551,0,0,0,.182.492" fill="#5c4524"/>
          <path id="Path_191" data-name="Path 191" d="M820.48,646.944a5.136,5.136,0,0,1,6.954.008,5.763,5.763,0,0,1-.052,7.879,4.861,4.861,0,0,1-3.429,1.314,4.773,4.773,0,0,1-3.57-1.455,5.26,5.26,0,0,1-1.441-3.817,5.2,5.2,0,0,1,1.538-3.929m1.144,7.5a2.94,2.94,0,0,0,4.647.029,7.215,7.215,0,0,0-.011-7.211,2.967,2.967,0,0,0-2.3-1.113,2.915,2.915,0,0,0-2.329,1.154,7.172,7.172,0,0,0,0,7.141" fill="#5c4524"/>
          <rect id="Rectangle_28" data-name="Rectangle 28" width="3.779" height="0.956" transform="translate(840.072 652)" fill="#5c4524"/>
          <path id="Path_192" data-name="Path 192" d="M861.876,645.877a8.3,8.3,0,0,0,.978.246.766.766,0,0,0,.41-.12.62.62,0,0,0,.269-.373h.321l.143,3.436h-.352a4.917,4.917,0,0,0-.8-1.651,3.068,3.068,0,0,0-2.532-1.18,3.212,3.212,0,0,0-2.625,1.27,5.437,5.437,0,0,0-1.02,3.494,4.777,4.777,0,0,0,1.072,3.268,3.452,3.452,0,0,0,2.715,1.221,4.367,4.367,0,0,0,2.189-.567,6.51,6.51,0,0,0,1.261-.971l.285.284a5.253,5.253,0,0,1-4.049,1.949,5.055,5.055,0,0,1-3.914-1.576,5.171,5.171,0,0,1-1.335-3.637,5.3,5.3,0,0,1,1.411-3.75,5.052,5.052,0,0,1,3.868-1.59,6.246,6.246,0,0,1,1.7.247" fill="#5c4524"/>
          <path id="Path_193" data-name="Path 193" d="M869.768,646.944a5.133,5.133,0,0,1,6.952.008,5.76,5.76,0,0,1-.052,7.879,4.856,4.856,0,0,1-3.427,1.314,4.781,4.781,0,0,1-3.572-1.455,5.259,5.259,0,0,1-1.44-3.817,5.193,5.193,0,0,1,1.539-3.929m1.143,7.5a2.912,2.912,0,0,0,2.333,1.153,2.943,2.943,0,0,0,2.314-1.124,7.208,7.208,0,0,0-.011-7.211,2.965,2.965,0,0,0-2.3-1.113,2.915,2.915,0,0,0-2.329,1.154,7.172,7.172,0,0,0,0,7.141" fill="#5c4524"/>
          <path id="Path_194" data-name="Path 194" d="M882.864,652.852a5.515,5.515,0,0,0,.911,1.643,2.845,2.845,0,0,0,2.259,1.068,1.864,1.864,0,0,0,1.263-.462,1.618,1.618,0,0,0,.534-1.293,1.8,1.8,0,0,0-.536-1.3,9.617,9.617,0,0,0-1.476-1.053l-1.3-.813a4.651,4.651,0,0,1-.94-.755,2.341,2.341,0,0,1-.65-1.6,2.613,2.613,0,0,1,.769-1.927,2.756,2.756,0,0,1,2.04-.77,3.953,3.953,0,0,1,1.258.258,5.275,5.275,0,0,0,.84.257.479.479,0,0,0,.392-.134.967.967,0,0,0,.169-.381h.313l.337,3.257h-.366a3.439,3.439,0,0,0-1.2-2.055,2.829,2.829,0,0,0-1.631-.581,1.71,1.71,0,0,0-1.095.37,1.23,1.23,0,0,0-.466,1.026,1.5,1.5,0,0,0,.358,1.008,4.561,4.561,0,0,0,1.111.889l1.343.829a7.024,7.024,0,0,1,1.779,1.426,2.463,2.463,0,0,1,.509,1.554,2.576,2.576,0,0,1-.907,2.01,3.37,3.37,0,0,1-2.318.807,4.5,4.5,0,0,1-1.484-.271,5.69,5.69,0,0,0-.884-.267.376.376,0,0,0-.362.164,1.026,1.026,0,0,0-.124.35h-.337l-.455-3.256Z" fill="#5c4524"/>
          <path id="Path_195" data-name="Path 195" d="M893.743,645.809h8.649l.083,2.6h-.366a3.15,3.15,0,0,0-.683-1.6,2.815,2.815,0,0,0-1.745-.369h-.851v7.828c0,.588.092.954.276,1.1a2.53,2.53,0,0,0,1.21.279v.283h-4.459v-.283a2.119,2.119,0,0,0,1.21-.32,2,2,0,0,0,.239-1.234v-7.648h-.859a2.936,2.936,0,0,0-1.729.365,2.717,2.717,0,0,0-.691,1.6h-.373Z" fill="#5c4524"/>
          <path id="Path_196" data-name="Path 196" d="M904.856,655.93v-.285a1.241,1.241,0,0,0,.884-.443,12.211,12.211,0,0,0,1.012-2.066l3.187-7.506h.3l3.811,8.671a3.641,3.641,0,0,0,.608,1.066,1.435,1.435,0,0,0,.766.278v.285h-3.89v-.285a3.4,3.4,0,0,0,.864-.145c.13-.056.194-.2.194-.42a1.793,1.793,0,0,0-.074-.392,4.359,4.359,0,0,0-.209-.6l-.612-1.471H907.67q-.6,1.5-.712,1.832a1.689,1.689,0,0,0-.115.524.54.54,0,0,0,.313.535,2.455,2.455,0,0,0,.731.133v.285Zm6.587-3.93-1.752-4.211L907.929,652Z" fill="#5c4524"/>
          <path id="Path_197" data-name="Path 197" d="M924.955,655.645a1.73,1.73,0,0,0,1.1-.342,2.146,2.146,0,0,0,.217-1.212v-6.623a1.608,1.608,0,0,0-.242-1.059,1.8,1.8,0,0,0-1.072-.315v-.285h4.234a6.264,6.264,0,0,1,2.2.335,2.331,2.331,0,0,1,1.673,2.335,2.142,2.142,0,0,1-.743,1.753,4.1,4.1,0,0,1-2.02.8l3.15,3.881a2.135,2.135,0,0,0,.583.521,1.916,1.916,0,0,0,.747.206v.284H932.32l-3.827-4.712-.67.037v3.015q0,.849.257,1.076a2.151,2.151,0,0,0,1.124.3v.284h-4.249Zm5.228-5.3a1.857,1.857,0,0,0,1.217-1.879,1.8,1.8,0,0,0-1.091-1.811,3.823,3.823,0,0,0-1.546-.261,1.946,1.946,0,0,0-.795.093c-.1.062-.145.207-.145.436v3.766a7.738,7.738,0,0,0,2.36-.344" fill="#5c4524"/>
          <path id="Path_198" data-name="Path 198" d="M938.291,655.645a2.557,2.557,0,0,0,1.211-.278q.276-.211.275-1.1v-6.8a1.491,1.491,0,0,0-.275-1.087,2.164,2.164,0,0,0-1.211-.287v-.285h4.526v.285a2.16,2.16,0,0,0-1.21.287,1.489,1.489,0,0,0-.276,1.087v6.8q0,.885.276,1.1a2.552,2.552,0,0,0,1.21.278v.284h-4.526Z" fill="#5c4524"/>
          <path id="Path_199" data-name="Path 199" d="M953.562,645.877a8.349,8.349,0,0,0,.978.246.772.772,0,0,0,.411-.12.628.628,0,0,0,.269-.373h.321l.142,3.436h-.352a4.916,4.916,0,0,0-.8-1.651,3.068,3.068,0,0,0-2.532-1.18,3.213,3.213,0,0,0-2.625,1.27,5.437,5.437,0,0,0-1.02,3.494,4.777,4.777,0,0,0,1.072,3.268,3.455,3.455,0,0,0,2.715,1.221,4.362,4.362,0,0,0,2.189-.567,6.508,6.508,0,0,0,1.261-.971l.285.284a5.128,5.128,0,0,1-1.263,1.128,5.433,5.433,0,0,1-6.7-.755,5.176,5.176,0,0,1-1.335-3.637,5.3,5.3,0,0,1,1.411-3.75,5.053,5.053,0,0,1,3.869-1.59,6.244,6.244,0,0,1,1.7.247" fill="#5c4524"/>
          <path id="Path_200" data-name="Path 200" d="M959.685,655.93v-.285a1.241,1.241,0,0,0,.884-.443,12.206,12.206,0,0,0,1.012-2.066l3.187-7.506h.3l3.811,8.671a3.639,3.639,0,0,0,.609,1.066,1.429,1.429,0,0,0,.765.278v.285h-3.889v-.285a3.4,3.4,0,0,0,.864-.145c.129-.056.193-.2.193-.42a1.839,1.839,0,0,0-.073-.392,4.5,4.5,0,0,0-.209-.6l-.613-1.471H962.5q-.6,1.5-.711,1.832a1.7,1.7,0,0,0-.116.524.541.541,0,0,0,.313.535,2.462,2.462,0,0,0,.731.133v.285Zm6.588-3.93-1.753-4.211L962.759,652Z" fill="#5c4524"/>
        </g>
        <g id="Group_81" data-name="Group 81">
          <path id="Path_201" data-name="Path 201" d="M742.17,621.92c-1.191,1.192-3.015,1.387-4.743,1.387-1,0-2.043-.1-2.942-.1a24.885,24.885,0,0,0-2.6.1v-.365a1.745,1.745,0,0,0,1.192-.535c.413-.463.437-1.144.437-3.235v-8.514c0-1.873-.073-2.262-.51-2.651a2.011,2.011,0,0,0-1.046-.389v-.365s.9.1,2.092.1c1.094,0,1.726-.073,3.356-.073,1.387,0,5.132.073,5.132,3.576,0,2.384-1.581,3.5-3.648,3.892,2.554.218,4.5,1.24,4.5,4.11A4.22,4.22,0,0,1,742.17,621.92Zm-5.253-13.791c-.463,0-1.265.1-1.265.1v6.1c.365.024.8.049,1.337.049a4.647,4.647,0,0,0,1.582-.2,2.9,2.9,0,0,0,1.7-2.967C740.273,608.372,738.181,608.129,736.917,608.129Zm0,7.126a11.453,11.453,0,0,0-1.265.049v5.935c0,.778.219,1.07.851,1.143a7.306,7.306,0,0,0,1.022.049c2.067-.024,3.551-1,3.551-3.6C741.076,616.374,739.592,615.255,736.917,615.255Z" fill="#5c4524"/>
          <path id="Path_202" data-name="Path 202" d="M755.476,623.453c-4.791,0-7.491-3.284-7.491-7.955,0-4.694,2.846-8.367,7.735-8.367,4.791,0,7.491,3.284,7.491,7.954C763.211,619.78,760.365,623.453,755.476,623.453Zm.171-15.324c-4.4,0-5.278,4.621-5.278,7.175,0,3.357,1.216,7.151,5.18,7.151,4.4,0,5.279-4.621,5.279-7.175C760.828,611.923,759.611,608.129,755.647,608.129Z" fill="#5c4524"/>
          <path id="Path_203" data-name="Path 203" d="M781.5,608.153c-.414.462-.438,1.143-.438,3.235v4.646a13.547,13.547,0,0,1-.462,4.378c-.706,1.946-2.335,3.065-5.741,3.065-3.867,0-5.18-1.46-5.74-3.065a11.535,11.535,0,0,1-.365-3.551v-6.2c0-1.873-.073-2.262-.51-2.651a2.011,2.011,0,0,0-1.046-.389v-.365l.267.024c.852.049,1.606.073,2.384.073.851,0,1.678,0,2.724-.1v.365a1.678,1.678,0,0,0-1.192.535c-.413.462-.438,1.143-.438,3.235v5.5c0,3.235.292,5.595,4.233,5.595,4.013,0,4.208-2.53,4.208-5.741v-6.081c0-1.873-.073-2.262-.511-2.651a2.011,2.011,0,0,0-1.046-.389v-.365c.949.049,1.484.1,2.335.1a23.832,23.832,0,0,0,2.53-.1v.365A1.676,1.676,0,0,0,781.5,608.153Z" fill="#5c4524"/>
          <path id="Path_204" data-name="Path 204" d="M797.364,610.318a2.144,2.144,0,0,0-.608-1.6,3.134,3.134,0,0,0-2.165-.463h-1.8v11.675c0,1.533.073,2.019.316,2.36.389.584,1.532.657,1.727.657v.365c-1.046-.049-2.213-.1-3.259-.1-.851,0-2.068,0-3.041.1v-.365a2.594,2.594,0,0,0,1.63-.56c.414-.462.438-1.119.438-3.21V608.25h-1.46c-1.094,0-2.018-.024-2.553.487a2.351,2.351,0,0,0-.56,1.581h-.413c.1-1.119.073-2.968.073-2.968H797.7s-.024,1.849.073,2.968Z" fill="#5c4524"/>
          <path id="Path_205" data-name="Path 205" d="M805.44,608.153c-.414.462-.438,1.143-.438,3.235V619.9c0,1.873.073,2.262.511,2.651a2,2,0,0,0,1.046.39v.365c-.949-.049-1.8-.1-2.652-.1a27.168,27.168,0,0,0-2.724.1v-.365a1.678,1.678,0,0,0,1.192-.535c.413-.463.438-1.144.438-3.235v-8.514c0-1.873-.073-2.262-.511-2.651a2.008,2.008,0,0,0-1.046-.389v-.365c.949.049,1.8.1,2.651.1s1.679,0,2.725-.1v.365A1.678,1.678,0,0,0,805.44,608.153Z" fill="#5c4524"/>
          <path id="Path_206" data-name="Path 206" d="M833.947,627.952c-3.6,0-7.929-1.751-12.818-4.84a8.463,8.463,0,0,1-2.432.341c-4.792,0-7.492-3.284-7.492-7.955,0-4.694,2.846-8.367,7.735-8.367,4.792,0,7.492,3.284,7.492,7.954a8.18,8.18,0,0,1-3.43,7.127c4.451,2.627,9.389,4.354,12.575,4.354a8.448,8.448,0,0,0,3.113-.56l.073.146A6.381,6.381,0,0,1,833.947,627.952Zm-15.08-19.823c-4.4,0-5.278,4.621-5.278,7.175,0,3.357,1.216,7.151,5.181,7.151,4.4,0,5.278-4.621,5.278-7.175C824.048,611.923,822.832,608.129,818.867,608.129Z" fill="#5c4524"/>
          <path id="Path_207" data-name="Path 207" d="M844.724,608.153c-.414.462-.438,1.143-.438,3.235v4.646a13.545,13.545,0,0,1-.462,4.378c-.7,1.946-2.335,3.065-5.74,3.065-3.868,0-5.181-1.46-5.741-3.065a11.565,11.565,0,0,1-.364-3.551v-6.2c0-1.873-.073-2.262-.511-2.651a2.011,2.011,0,0,0-1.046-.389v-.365l.267.024c.852.049,1.606.073,2.384.073.851,0,1.678,0,2.724-.1v.365a1.678,1.678,0,0,0-1.192.535c-.413.462-.437,1.143-.437,3.235v5.5c0,3.235.291,5.595,4.232,5.595,4.013,0,4.208-2.53,4.208-5.741v-6.081c0-1.873-.073-2.262-.511-2.651a2.011,2.011,0,0,0-1.046-.389v-.365c.949.049,1.484.1,2.335.1a23.815,23.815,0,0,0,2.53-.1v.365A1.678,1.678,0,0,0,844.724,608.153Z" fill="#5c4524"/>
          <path id="Path_208" data-name="Path 208" d="M859.83,623.258h-5.838c-1.362,0-2.773-.024-4.135.049v-.365a1.7,1.7,0,0,0,1.192-.535c.414-.463.438-1.144.438-3.235v-8.465c0-1.8-.024-2.165-.413-2.6a1.615,1.615,0,0,0-1.144-.463v-.365c1.338.073,2.214.073,3.576.073h6.251s-.024,1.849.073,2.968h-.414a2.078,2.078,0,0,0-.608-1.581,3.139,3.139,0,0,0-2.164-.438h-2.968v6.2h2.7c1.021,0,1.532-.073,1.9-.462a1.99,1.99,0,0,0,.438-1.386h.389c0,.535-.049.778-.049,2.31,0,1.508.049,1.7.073,2.263h-.413a1.831,1.831,0,0,0-.462-1.363c-.365-.389-1-.437-1.922-.437h-2.651v5.642c0,1.1.268,1.241,1.581,1.241h1.435c1.07,0,1.751-.024,2.213-.486a2.465,2.465,0,0,0,.584-1.7h.414C859.806,621.239,859.83,623.258,859.83,623.258Z" fill="#5c4524"/>
          <path id="Path_209" data-name="Path 209" d="M886.489,608.153c-.413.462-.438,1.143-.438,3.235V619.9c0,1.873.073,2.262.511,2.651a2,2,0,0,0,1.046.39v.365c-.949-.049-1.8-.1-2.651-.1a27.168,27.168,0,0,0-2.724.1v-.365a1.679,1.679,0,0,0,1.192-.535c.413-.463.438-1.144.438-3.235v-3.649h-8.2V619.9c0,1.873.073,2.262.511,2.651a2,2,0,0,0,1.046.39v.365c-.949-.049-1.8-.1-2.651-.1a27.2,27.2,0,0,0-2.725.1v-.365a1.68,1.68,0,0,0,1.193-.535c.413-.463.437-1.144.437-3.235v-8.514c0-1.873-.073-2.262-.51-2.651a2.012,2.012,0,0,0-1.047-.389v-.365c.949.049,1.8.1,2.652.1s1.678,0,2.724-.1v.365a1.678,1.678,0,0,0-1.192.535c-.413.462-.438,1.143-.438,3.235v2.992h8.2v-3.722c0-1.873-.073-2.262-.511-2.651a2.011,2.011,0,0,0-1.046-.389v-.365c.948.049,1.8.1,2.651.1s1.678,0,2.724-.1v.365A1.678,1.678,0,0,0,886.489,608.153Z" fill="#5c4524"/>
          <path id="Path_210" data-name="Path 210" d="M899.747,623.453c-4.792,0-7.492-3.284-7.492-7.955,0-4.694,2.846-8.367,7.735-8.367,4.792,0,7.492,3.284,7.492,7.954C907.482,619.78,904.636,623.453,899.747,623.453Zm.17-15.324c-4.4,0-5.278,4.621-5.278,7.175,0,3.357,1.216,7.151,5.181,7.151,4.4,0,5.278-4.621,5.278-7.175C905.1,611.923,903.882,608.129,899.917,608.129Z" fill="#5c4524"/>
          <path id="Path_211" data-name="Path 211" d="M922.782,610.318a2.137,2.137,0,0,0-.608-1.6,3.129,3.129,0,0,0-2.164-.463h-1.8v11.675c0,1.533.073,2.019.317,2.36.389.584,1.532.657,1.727.657v.365c-1.046-.049-2.214-.1-3.26-.1-.851,0-2.067,0-3.04.1v-.365a2.594,2.594,0,0,0,1.63-.56c.413-.462.438-1.119.438-3.21V608.25h-1.46c-1.095,0-2.019-.024-2.554.487a2.351,2.351,0,0,0-.559,1.581h-.414c.1-1.119.073-2.968.073-2.968h12.016s-.025,1.849.073,2.968Z" fill="#5c4524"/>
          <path id="Path_212" data-name="Path 212" d="M936.575,623.258h-5.838c-1.362,0-2.773-.024-4.135.049v-.365a1.7,1.7,0,0,0,1.192-.535c.413-.463.437-1.144.437-3.235v-8.465c0-1.8-.024-2.165-.413-2.6a1.612,1.612,0,0,0-1.143-.463v-.365c1.338.073,2.213.073,3.576.073H936.5s-.025,1.849.073,2.968h-.414a2.078,2.078,0,0,0-.608-1.581,3.14,3.14,0,0,0-2.165-.438h-2.967v6.2h2.7c1.022,0,1.533-.073,1.9-.462a1.99,1.99,0,0,0,.438-1.386h.389c0,.535-.049.778-.049,2.31,0,1.508.049,1.7.073,2.263h-.413a1.831,1.831,0,0,0-.462-1.363c-.365-.389-1-.437-1.922-.437h-2.651v5.642c0,1.1.267,1.241,1.581,1.241h1.435c1.07,0,1.751-.024,2.213-.486a2.465,2.465,0,0,0,.584-1.7h.414C936.55,621.239,936.575,623.258,936.575,623.258Z" fill="#5c4524"/>
          <path id="Path_213" data-name="Path 213" d="M951.315,623.258h-5.643c-1.653,0-3.672,0-4.135.049v-.341a1.68,1.68,0,0,0,1.193-.535c.413-.462.437-1.144.437-3.235v-8.538c0-1.873-.073-2.262-.51-2.651a2.012,2.012,0,0,0-1.047-.389v-.365c.949.049,1.971.1,2.822.1s2.019,0,3.065-.1v.389a2.478,2.478,0,0,0-1.679.535c-.413.463-.462,1.022-.462,3.211v9.68c0,1.1.268,1.241,1.581,1.241h1.241c1.07,0,1.751-.024,2.213-.486a2.47,2.47,0,0,0,.584-1.7h.413C951.291,621.239,951.315,623.258,951.315,623.258Z" fill="#5c4524"/>
        </g>
      </g>
    </g>
  </g>
</svg>
